<svg xmlns="http://www.w3.org/2000/svg" viewBox="0 0 460 220" width="460" height="220" font-family="Inter, &#39;Helvetica Neue&#39;, Arial, sans-serif">
            <defs><linearGradient id="g1av" x1="0" y1="0" x2="1" y2="1"><stop offset="0" stop-color="#0D9488"></stop><stop offset="1" stop-color="#10B981"></stop></linearGradient></defs>
            <ellipse cx="180" cy="198" rx="172" ry="8" fill="#E2E8F0"></ellipse>
            <path d="M18,158 L18,84 C18,71 28,62 40,62 L246,62 C270,62 291,73 305,93 L330,129 C336,138 339,147 339,156 L339,162 C339,169 333,174 326,174 L31,174 C24,174 18,169 18,162 Z" fill="#FFFFFF" stroke="#CBD5E1" stroke-width="2"></path>
            <path d="M256,76 L272,76 C287,76 299,84 307,97 L321,118 L256,118 Z" fill="#99F6E4"></path>
            <line x1="236" y1="130" x2="236" y2="166" stroke="#E2E8F0" stroke-width="2"></line>
            <rect x="26" y="140" width="288" height="11" rx="5.5" fill="url(#g1av)"></rect>
            <rect x="30" y="80" width="40" height="40" rx="10" fill="url(#g1av)"></rect>
            <rect x="46" y="88" width="8" height="24" rx="2" fill="#FFFFFF"></rect>
            <rect x="38" y="96" width="24" height="8" rx="2" fill="#FFFFFF"></rect>
            <text x="80" y="102" font-family="Inter,sans-serif" font-size="20" font-weight="800" fill="#0F766E">KGee<tspan fill="#1E293B">MediWorld</tspan></text>
            <text x="81" y="120" font-family="Inter,sans-serif" font-size="7" font-weight="600" letter-spacing="1.5" fill="#64748B">MEDICAL SUPPLY DELIVERY</text>
            <circle cx="84" cy="170" r="24" fill="#1E293B"></circle><circle cx="84" cy="170" r="11" fill="#CBD5E1"></circle><circle cx="84" cy="170" r="4" fill="#64748B"></circle>
            <circle cx="272" cy="170" r="24" fill="#1E293B"></circle><circle cx="272" cy="170" r="11" fill="#CBD5E1"></circle><circle cx="272" cy="170" r="4" fill="#64748B"></circle>
            <rect x="332" y="132" width="8" height="13" rx="3" fill="#CBD5E1"></rect>
          </svg>