<svg xmlns="http://www.w3.org/2000/svg" viewBox="0 0 380 180" width="380" height="180" font-family="Inter, &#39;Helvetica Neue&#39;, Arial, sans-serif">
            <defs><linearGradient id="g1ac" x1="0" y1="0" x2="1" y2="1"><stop offset="0" stop-color="#0D9488"></stop><stop offset="1" stop-color="#10B981"></stop></linearGradient></defs>
            <ellipse cx="185" cy="160" rx="158" ry="7" fill="#E2E8F0"></ellipse>
            <path d="M24,136 C18,136 14,131 14,125 L14,116 C14,104 22,96 34,93 L64,86 C88,64 118,52 152,52 L204,52 C238,52 268,64 292,88 L330,96 C344,99 352,108 352,120 L352,125 C352,131 348,136 342,136 Z" fill="#FFFFFF" stroke="#CBD5E1" stroke-width="2"></path>
            <path d="M150,62 L188,62 L188,88 L116,88 C126,76 137,68 150,62 Z" fill="#99F6E4"></path>
            <path d="M198,62 L204,62 C228,62 250,71 268,86 L198,88 Z" fill="#99F6E4"></path>
            <rect x="118" y="98" width="26" height="26" rx="7" fill="url(#g1ac)"></rect>
            <rect x="128.5" y="103" width="5" height="16" rx="1.5" fill="#FFFFFF"></rect>
            <rect x="123" y="108.5" width="16" height="5" rx="1.5" fill="#FFFFFF"></rect>
            <text x="152" y="116" font-family="Inter,sans-serif" font-size="13" font-weight="800" fill="#0F766E">KGee<tspan fill="#1E293B">MediWorld</tspan></text>
            <circle cx="92" cy="136" r="21" fill="#1E293B"></circle><circle cx="92" cy="136" r="9.5" fill="#CBD5E1"></circle><circle cx="92" cy="136" r="3.5" fill="#64748B"></circle>
            <circle cx="288" cy="136" r="21" fill="#1E293B"></circle><circle cx="288" cy="136" r="9.5" fill="#CBD5E1"></circle><circle cx="288" cy="136" r="3.5" fill="#64748B"></circle>
          </svg>