<svg xmlns="http://www.w3.org/2000/svg" viewBox="0 0 420 260" width="420" height="260" font-family="Inter, &#39;Helvetica Neue&#39;, Arial, sans-serif">
          <defs><linearGradient id="g1ab" x1="0" y1="0" x2="1" y2="1"><stop offset="0" stop-color="#0D9488"></stop><stop offset="1" stop-color="#10B981"></stop></linearGradient></defs>
          <ellipse cx="210" cy="240" rx="190" ry="8" fill="#E2E8F0"></ellipse>
          <path d="M30,110 L66,86 L246,86 L210,110 Z" fill="#F1F5F9" stroke="#CBD5E1" stroke-width="1.5"></path>
          <path d="M210,110 L246,86 L246,202 L210,226 Z" fill="#E2E8F0" stroke="#CBD5E1" stroke-width="1.5"></path>
          <rect x="30" y="110" width="180" height="116" fill="#FFFFFF" stroke="#CBD5E1" stroke-width="1.5"></rect>
          <rect x="30" y="204" width="180" height="16" fill="#14B8A6" opacity="0.85"></rect>
          <rect x="46" y="126" width="32" height="32" rx="9" fill="url(#g1ab)"></rect>
          <rect x="59" y="132" width="6" height="20" rx="2" fill="#FFFFFF"></rect>
          <rect x="52" y="139" width="20" height="6" rx="2" fill="#FFFFFF"></rect>
          <text x="46" y="184" font-family="Inter,sans-serif" font-size="15" font-weight="800" fill="#0F766E">KGee<tspan fill="#1E293B">MediWorld</tspan></text>
          <text x="46" y="198" font-family="Inter,sans-serif" font-size="8" font-weight="600" letter-spacing="2" fill="#94A3B8">MEDICAL SUPPLIES</text>
          <circle cx="188" cy="176" r="13" fill="none" stroke="#0D9488" stroke-width="2.5"></circle>
          <rect x="185.5" y="168" width="5" height="16" rx="1.5" fill="#0D9488"></rect>
          <rect x="180" y="173.5" width="16" height="5" rx="1.5" fill="#0D9488"></rect>
          <path d="M256,150 L282,132 L400,132 L374,150 Z" fill="#F1F5F9" stroke="#CBD5E1" stroke-width="1.5"></path>
          <path d="M374,150 L400,132 L400,208 L374,226 Z" fill="#E2E8F0" stroke="#CBD5E1" stroke-width="1.5"></path>
          <rect x="256" y="150" width="118" height="76" fill="#FFFFFF" stroke="#CBD5E1" stroke-width="1.5"></rect>
          <rect x="256" y="180" width="118" height="14" fill="#14B8A6" opacity="0.85"></rect>
          <rect x="268" y="158" width="18" height="18" rx="5" fill="url(#g1ab)"></rect>
          <rect x="275" y="161" width="4" height="12" rx="1" fill="#FFFFFF"></rect>
          <rect x="271" y="165" width="12" height="4" rx="1" fill="#FFFFFF"></rect>
          <rect x="294" y="160" width="52" height="5" rx="2.5" fill="#CBD5E1"></rect>
          <rect x="294" y="169" width="38" height="5" rx="2.5" fill="#E2E8F0"></rect>
          <rect x="268" y="202" width="44" height="5" rx="2.5" fill="#E2E8F0"></rect>
          <rect x="268" y="211" width="30" height="5" rx="2.5" fill="#E2E8F0"></rect>
        </svg>