<svg xmlns="http://www.w3.org/2000/svg" viewBox="0 0 560 240" width="560" height="240" font-family="Inter, &#39;Helvetica Neue&#39;, Arial, sans-serif">
            <defs><linearGradient id="g1at" x1="0" y1="0" x2="1" y2="1"><stop offset="0" stop-color="#0D9488"></stop><stop offset="1" stop-color="#10B981"></stop></linearGradient></defs>
            <ellipse cx="260" cy="218" rx="245" ry="9" fill="#E2E8F0"></ellipse>
            <rect x="14" y="26" width="316" height="150" rx="12" fill="#FFFFFF" stroke="#CBD5E1" stroke-width="2"></rect>
            <rect x="24" y="150" width="296" height="12" rx="6" fill="url(#g1at)"></rect>
            <rect x="52" y="56" width="46" height="46" rx="12" fill="url(#g1at)"></rect>
            <rect x="70.5" y="65" width="9" height="28" rx="2.5" fill="#FFFFFF"></rect>
            <rect x="61" y="74.5" width="28" height="9" rx="2.5" fill="#FFFFFF"></rect>
            <text x="112" y="85" font-family="Inter,sans-serif" font-size="24" font-weight="800" fill="#0F766E">KGee<tspan fill="#1E293B">MediWorld</tspan></text>
            <text x="113" y="110" font-family="Inter,sans-serif" font-size="9" font-weight="600" letter-spacing="1.8" fill="#64748B">MEDICAL SUPPLY DELIVERY</text>
            <path d="M344,70 L398,70 C420,70 436,82 444,102 L458,138 C461,146 462,152 462,160 L462,172 C462,178 457,182 451,182 L344,182 Z" fill="#FFFFFF" stroke="#CBD5E1" stroke-width="2"></path>
            <path d="M356,84 L396,84 C410,84 421,92 427,106 L436,128 L356,128 Z" fill="#99F6E4"></path>
            <rect x="352" y="140" width="18" height="4" rx="2" fill="#CBD5E1"></rect>
            <rect x="448" y="166" width="16" height="16" rx="3" fill="#1E293B"></rect>
            <circle cx="86" cy="190" r="27" fill="#1E293B"></circle><circle cx="86" cy="190" r="12.5" fill="#CBD5E1"></circle><circle cx="86" cy="190" r="4.5" fill="#64748B"></circle>
            <circle cx="150" cy="190" r="27" fill="#1E293B"></circle><circle cx="150" cy="190" r="12.5" fill="#CBD5E1"></circle><circle cx="150" cy="190" r="4.5" fill="#64748B"></circle>
            <circle cx="400" cy="190" r="27" fill="#1E293B"></circle><circle cx="400" cy="190" r="12.5" fill="#CBD5E1"></circle><circle cx="400" cy="190" r="4.5" fill="#64748B"></circle>
          </svg>